<?xml version="1.0" encoding="UTF-8"?>
<svg id="Layer_2" data-name="Layer 2" xmlns="http://www.w3.org/2000/svg" viewBox="0 0 262.26 262.26">
  <defs>
    <style>
      .cls-1 {
        fill: #fff;
      }
    </style>
  </defs>
  <g id="Layer_1-2" data-name="Layer 1">
    <g>
      <path class="cls-1" d="M217.71,11c18.5,0,33.55,15.05,33.55,33.55v173.17c0,18.5-15.05,33.55-33.55,33.55H44.55c-18.5,0-33.55-15.05-33.55-33.55V44.55c0-18.5,15.05-33.55,33.55-33.55h173.17M217.71,0H44.55C19.94,0,0,19.94,0,44.55v173.17c0,24.6,19.94,44.55,44.55,44.55h173.17c24.6,0,44.55-19.94,44.55-44.55V44.55c0-24.6-19.94-44.55-44.55-44.55h0Z"/>
      <g>
        <path class="cls-1" d="M45.74,79.77h26.01c15.02,0,31.9,2.79,31.9,26.01,0,9.75-2.94,16.1-7.12,20.13,7.28,4.64,13.01,13.16,13.01,28.18,0,26.79-16.72,33.29-33.29,34.07h-30.5v-108.39ZM73.14,120.65c7.28,0,17.81.62,17.81-14.86,0-14.25-12.39-13.63-19.2-13.63h-13.16v28.49h14.56ZM96.83,154.09c0-17.19-10.22-21.06-20.75-21.06h-17.5v42.74h14.09c19.2,0,24.15-8.21,24.15-21.68Z"/>
        <path class="cls-1" d="M155.51,133.81c0-31.12,5.73-56.51,33.44-56.51s33.45,25.39,33.45,56.51-5.73,56.67-33.45,56.67-33.44-25.39-33.44-56.67ZM188.96,178.09c19.36,0,20.9-19.35,20.9-43.82s-1.55-44.59-20.9-44.59-20.9,19.66-20.9,44.28,1.55,44.13,20.9,44.13Z"/>
      </g>
      <polygon class="cls-1" points="130.61 84.44 117.92 116.75 130.61 116.75 146.37 84.44 130.61 84.44"/>
    </g>
  </g>
</svg>